[Header]
FileType HTR
DataType HTRS
FileVersion 1
NumSegments 64
NumFrames 4
DataFrameRate 30
EulerRotationOrder ZYX
CalibrationUnits mm
RotationUnits Degrees
GlobalAxisofGravity Y
BoneLengthAxis Y
ScaleFactor 1.0
[SegmentNames&Hierarchy]
Hips	GLOBAL
Spine	Hips
Spine1	Spine
Spine2	Spine1
Neck	Spine2
Head	Neck
LeftEye	Head
RightEye	Head
LeftShoulder	Spine2
LeftArm	LeftShoulder
LeftForeArm	LeftArm
LeftHand	LeftForeArm
LeftHandThumb1	LeftHand
LeftHandThumb2	LeftHandThumb1
LeftHandThumb3	LeftHandThumb2
LeftHandThumb4	LeftHandThumb3
LeftHandIndex1	LeftHand
LeftHandIndex2	LeftHandIndex1
LeftHandIndex3	LeftHandIndex2
LeftHandIndex4	LeftHandIndex3
LeftHandMiddle1	LeftHand
LeftHandMiddle2	LeftHandMiddle1
LeftHandMiddle3	LeftHandMiddle2
LeftHandMiddle4	LeftHandMiddle3
LeftHandRing1	LeftHand
LeftHandRing2	LeftHandRing1
LeftHandRing3	LeftHandRing2
LeftHandRing4	LeftHandRing3
LeftHandPinky1	LeftHand
LeftHandPinky2	LeftHandPinky1
LeftHandPinky3	LeftHandPinky2
LeftHandPinky4	LeftHandPinky3
RightShoulder	Spine2
RightArm	RightShoulder
RightForeArm	RightArm
RightHand	RightForeArm
RightHandPinky1	RightHand
RightHandPinky2	RightHandPinky1
RightHandPinky3	RightHandPinky2
RightHandPinky4	RightHandPinky3
RightHandRing1	RightHand
RightHandRing2	RightHandRing1
RightHandRing3	RightHandRing2
RightHandRing4	RightHandRing3
RightHandMiddle1	RightHand
RightHandMiddle2	RightHandMiddle1
RightHandMiddle3	RightHandMiddle2
RightHandMiddle4	RightHandMiddle3
RightHandIndex1	RightHand
RightHandIndex2	RightHandIndex1
RightHandIndex3	RightHandIndex2
RightHandIndex4	RightHandIndex3
RightHandThumb1	RightHand
RightHandThumb2	RightHandThumb1
RightHandThumb3	RightHandThumb2
RightHandThumb4	RightHandThumb3
LeftUpLeg	Hips
LeftLeg	LeftUpLeg
LeftFoot	LeftLeg
LeftToeBase	LeftFoot
RightUpLeg	Hips
RightLeg	RightUpLeg
RightFoot	RightLeg
RightToeBase	RightFoot
[BasePosition]
Hips	0	0	0	0	0	0	1
Spine	0	0	0	0	0	0	1
Spine1	0	0	0	0	0	0	1
Spine2	0	0	0	0	0	0	1
Neck	0	0	0	0	0	0	1
Head	0	0	0	0	0	0	1
LeftEye	0	0	0	0	0	0	1
RightEye	0	0	0	0	0	0	1
LeftShoulder	0	0	0	0	0	0	1
LeftArm	0	0	0	0	0	0	1
LeftForeArm	0	0	0	0	0	0	1
LeftHand	0	0	0	0	0	0	1
LeftHandThumb1	0	0	0	0	0	0	1
LeftHandThumb2	0	0	0	0	0	0	1
LeftHandThumb3	0	0	0	0	0	0	1
LeftHandThumb4	0	0	0	0	0	0	1
LeftHandIndex1	0	0	0	0	0	0	1
LeftHandIndex2	0	0	0	0	0	0	1
LeftHandIndex3	0	0	0	0	0	0	1
LeftHandIndex4	0	0	0	0	0	0	1
LeftHandMiddle1	0	0	0	0	0	0	1
LeftHandMiddle2	0	0	0	0	0	0	1
LeftHandMiddle3	0	0	0	0	0	0	1
LeftHandMiddle4	0	0	0	0	0	0	1
LeftHandRing1	0	0	0	0	0	0	1
LeftHandRing2	0	0	0	0	0	0	1
LeftHandRing3	0	0	0	0	0	0	1
LeftHandRing4	0	0	0	0	0	0	1
LeftHandPinky1	0	0	0	0	0	0	1
LeftHandPinky2	0	0	0	0	0	0	1
LeftHandPinky3	0	0	0	0	0	0	1
LeftHandPinky4	0	0	0	0	0	0	1
RightShoulder	0	0	0	0	0	0	1
RightArm	0	0	0	0	0	0	1
RightForeArm	0	0	0	0	0	0	1
RightHand	0	0	0	0	0	0	1
RightHandPinky1	0	0	0	0	0	0	1
RightHandPinky2	0	0	0	0	0	0	1
RightHandPinky3	0	0	0	0	0	0	1
RightHandPinky4	0	0	0	0	0	0	1
RightHandRing1	0	0	0	0	0	0	1
RightHandRing2	0	0	0	0	0	0	1
RightHandRing3	0	0	0	0	0	0	1
RightHandRing4	0	0	0	0	0	0	1
RightHandMiddle1	0	0	0	0	0	0	1
RightHandMiddle2	0	0	0	0	0	0	1
RightHandMiddle3	0	0	0	0	0	0	1
RightHandMiddle4	0	0	0	0	0	0	1
RightHandIndex1	0	0	0	0	0	0	1
RightHandIndex2	0	0	0	0	0	0	1
RightHandIndex3	0	0	0	0	0	0	1
RightHandIndex4	0	0	0	0	0	0	1
RightHandThumb1	0	0	0	0	0	0	1
RightHandThumb2	0	0	0	0	0	0	1
RightHandThumb3	0	0	0	0	0	0	1
RightHandThumb4	0	0	0	0	0	0	1
LeftUpLeg	0	0	0	0	0	0	1
LeftLeg	0	0	0	0	0	0	1
LeftFoot	0	0	0	0	0	0	1
LeftToeBase	0	0	0	0	0	0	1
RightUpLeg	0	0	0	0	0	0	1
RightLeg	0	0	0	0	0	0	1
RightFoot	0	0	0	0	0	0	1
RightToeBase	0	0	0	0	0	0	1
[Hips]
58	11.7062912	1022.208313	-8.11151123	-1.636382937	-2.158466578	-4.528097153	1.0
59	11.04305363	1025.879761	-4.703456879	-2.158107281	-3.146289587	-4.304204941	1.0
60	10.19964027	1029.371582	-1.060665131	-2.516260862	-4.063737392	-4.05938673	1.0
61	9.233388901	1031.855713	2.40671277	-2.764090538	-4.830004215	-3.804540396	1.0
[Spine]
58	0	101.8159943	1.315000057	4.263919353	2.690873384	3.040126085	1.0
59	0	101.8159943	1.315000057	4.150661945	2.435097933	3.035873652	1.0
60	0	101.8159943	1.315000057	3.942567348	2.281018496	3.003871679	1.0
61	0	101.8159943	1.315000057	3.707513332	2.188878298	2.957272053	1.0
[Spine1]
58	0	100.8349991	-10.00800037	1.38297677	0.6402852535	1.615555763	1.0
59	0	100.8349991	-10.00800037	1.357599616	0.58659935	1.61480999	1.0
60	0	100.8349991	-10.00800037	1.305583715	0.5619642138	1.604774594	1.0
61	0	100.8349991	-10.00800037	1.245880008	0.5527071357	1.590330482	1.0
[Spine2]
58	0	91	-13.73399925	1.354946971	0.6677290797	1.618388057	1.0
59	0	91	-13.73399925	1.330493689	0.6129190922	1.617010713	1.0
60	0	91	-13.73399925	1.279178381	0.5870478749	1.6064744	1.0
61	0	91	-13.73399925	1.220000505	0.5766035914	1.59173727	1.0
[Neck]
58	0	166.7169952	-25.16200066	5.93858099	-0.8640032411	0.1422827691	1.0
59	0	166.7169952	-25.16200066	5.983149529	-0.6806508899	0.2805086374	1.0
60	0	166.7169952	-25.16200066	6.026078224	-0.5391602516	0.4021705091	1.0
61	0	166.7169952	-25.16200066	6.024435043	-0.4273317754	0.4787459671	1.0
[Head]
58	0	96.17900085	16.84999847	-8.411782265	-3.014709234	2.703785896	1.0
59	0	96.17900085	16.84999847	-8.090502739	-1.751542449	1.798306227	1.0
60	0	96.17900085	16.84999847	-7.636172295	-0.7282086015	1.089070439	1.0
61	0	96.17900085	16.84999847	-7.208265781	0.05937510356	0.5525057912	1.0
[LeftEye]
58	30.6760006	64.09500122	92.83599854	0	0	0	1.0
59	30.6760006	64.09500122	92.83599854	0	0	0	1.0
60	30.6760006	64.09500122	92.83599854	0	0	0	1.0
61	30.6760006	64.09500122	92.83599854	0	0	0	1.0
[RightEye]
58	-30.6760006	64.09500122	92.83499908	0	0	0	1.0
59	-30.6760006	64.09500122	92.83499908	0	0	0	1.0
60	-30.6760006	64.09500122	92.83499908	0	0	0	1.0
61	-30.6760006	64.09500122	92.83499908	0	0	0	1.0
[LeftShoulder]
58	45.70400238	109.4599991	-26.28000069	4.869962215	-17.34896469	-12.61168385	1.0
59	45.70400238	109.4599991	-26.28000069	4.856097221	-17.37533951	-12.57430744	1.0
60	45.70400238	109.4599991	-26.28000069	4.850121975	-17.32035065	-12.60625935	1.0
61	45.70400238	109.4599991	-26.28000069	4.844638824	-17.17633629	-12.66457272	1.0
[LeftArm]
58	105.923996	-5.24600029	-22.32099915	23.23229408	-5.350868702	-65.15476227	1.0
59	105.923996	-5.24600029	-22.32099915	22.90309715	-5.048203945	-65.67066193	1.0
60	105.923996	-5.24600029	-22.32099915	22.77023315	-4.645381451	-66.41822815	1.0
61	105.923996	-5.24600029	-22.32099915	22.73937035	-4.29887867	-67.29102325	1.0
[LeftForeArm]
58	278.414978	-0.0009999999311	0	1.146382488e-06	-18.46261787	-0.0002044688445	1.0
59	278.414978	-0.0009999999311	0	-9.37749121e-07	-15.82695866	-0.0002138809214	1.0
60	278.414978	-0.0009999999311	0	4.194437793e-07	-12.8050251	-0.0002155030961	1.0
61	278.414978	-0.0009999999311	0	-5.299616078e-06	-9.832483292	-0.0002026292641	1.0
[LeftHand]
58	283.2879944	0	0	-30.90892601	-4.292654037	0.04807030037	1.0
59	283.2879944	0	0	-30.02701569	-4.051062584	-0.0475316979	1.0
60	283.2879944	0	0	-30.42856407	-3.924846411	-0.7869298458	1.0
61	283.2879944	0	0	-31.34784126	-3.836867571	-2.151291132	1.0
[LeftHandThumb1]
58	24.6609993	-15.75	26.8239994	-0.4889849126	2.201374531	4.818534374	1.0
59	24.6609993	-15.75	26.8239994	-0.4889859557	2.201368093	4.818558693	1.0
60	24.6609993	-15.75	26.8239994	-0.4889817536	2.201394796	4.818572998	1.0
61	24.6609993	-15.75	26.8239994	-0.4889856577	2.201397657	4.818539143	1.0
[LeftHandThumb2]
58	32.29800034	-18.64699936	18.64699936	19.74671173	21.33695793	22.47346497	1.0
59	32.29800034	-18.64699936	18.64699936	20.00299263	20.77136993	22.80497169	1.0
60	32.29800034	-18.64699936	18.64699936	20.10832977	19.97535706	23.09572983	1.0
61	32.29800034	-18.64699936	18.64699936	20.09608841	19.37931442	23.22420883	1.0
[LeftHandThumb3]
58	26.52600098	-15.31499958	15.31499958	-13.11213112	5.760644436	7.971987247	1.0
59	26.52600098	-15.31499958	15.31499958	-13.14522457	5.571730614	8.001686096	1.0
60	26.52600098	-15.31499958	15.31499958	-13.16729927	5.434885025	8.002833366	1.0
61	26.52600098	-15.31499958	15.31499958	-13.17157078	5.392158985	7.975244999	1.0
[LeftHandThumb4]
58	19.54599953	-11.28499985	11.28499985	0	0	0	1.0
59	19.54599953	-11.28499985	11.28499985	0	0	0	1.0
60	19.54599953	-11.28499985	11.28499985	0	0	0	1.0
61	19.54599953	-11.28499985	11.28499985	0	0	0	1.0
[LeftHandIndex1]
58	91.09299469	-5.170999527	22.60099792	0.2461794913	-0.1212743744	-9.984509468	1.0
59	91.09299469	-5.170999527	22.60099792	0.1644926667	-0.550665915	-9.110667229	1.0
60	91.09299469	-5.170999527	22.60099792	0.1036366224	-0.9571439028	-8.099420547	1.0
61	91.09299469	-5.170999527	22.60099792	0.1052444801	-1.113398671	-7.431374073	1.0
[LeftHandIndex2]
58	36.76399994	0	0	-0.2656186521	1.741721869	-17.34095383	1.0
59	36.76399994	0	0	-0.2656949759	1.741971016	-17.3435421	1.0
60	36.76399994	0	0	-0.2658058703	1.742318869	-17.34718132	1.0
61	36.76399994	0	0	-0.2661108077	1.743286967	-17.35709953	1.0
[LeftHandIndex3]
58	28.83100128	0	0	-0.0569242388	0.8137532473	-8.002908707	1.0
59	28.83100128	0	0	-0.05696355179	0.8140152693	-8.005496025	1.0
60	28.83100128	0	0	-0.05701335147	0.8143854737	-8.009100914	1.0
61	28.83100128	0	0	-0.05715573579	0.815380156	-8.0190382	1.0
[LeftHandIndex4]
58	23.92700005	0	0	0	0	0	1.0
59	23.92700005	0	0	0	0	0	1.0
60	23.92700005	0	0	0	0	0	1.0
61	23.92700005	0	0	0	0	0	1.0
[LeftHandMiddle1]
58	95.33399963	0	0	-0.9585714936	3.437916517	-18.07405281	1.0
59	95.33399963	0	0	-0.9201934338	3.481212616	-17.52843285	1.0
60	95.33399963	0	0	-0.8710414767	3.428275585	-16.82416153	1.0
61	95.33399963	0	0	-0.8331495523	3.249071598	-16.27461433	1.0
[LeftHandMiddle2]
58	36.98199844	0	0	-0.2678302526	1.748774886	-17.41355515	1.0
59	36.98199844	0	0	-0.2677884698	1.748634577	-17.41210747	1.0
60	36.98199844	0	0	-0.267989248	1.749262452	-17.41853142	1.0
61	36.98199844	0	0	-0.2682430446	1.750079155	-17.42695045	1.0
[LeftHandMiddle3]
58	29.50900078	0	0	-0.2994012237	1.846356034	-18.41976547	1.0
59	29.50900078	0	0	-0.2993494868	1.846214533	-18.41827774	1.0
60	29.50900078	0	0	-0.2995502353	1.846835613	-18.42467117	1.0
61	29.50900078	0	0	-0.2998295426	1.847654104	-18.4331646	1.0
[LeftHandMiddle4]
58	28.3390007	0	0	0	0	0	1.0
59	28.3390007	0	0	0	0	0	1.0
60	28.3390007	0	0	0	0	0	1.0
61	28.3390007	0	0	0	0	0	1.0
[LeftHandRing1]
58	91.04499817	-0.4390000105	-18.65100098	-1.287391186	3.193184376	-22.51320648	1.0
59	91.04499817	-0.4390000105	-18.65100098	-1.241801143	3.246455431	-21.91751862	1.0
60	91.04499817	-0.4390000105	-18.65100098	-1.188697696	3.28924942	-21.21824265	1.0
61	91.04499817	-0.4390000105	-18.65100098	-1.154310942	3.307536602	-20.76057816	1.0
[LeftHandRing2]
58	31.54000092	0	0	-0.3865538239	2.089790583	-20.95723915	1.0
59	31.54000092	0	0	-0.3858298063	2.087901592	-20.93740082	1.0
60	31.54000092	0	0	-0.3854685426	2.086968184	-20.92752266	1.0
61	31.54000092	0	0	-0.3853276968	2.086601257	-20.92367172	1.0
[LeftHandRing3]
58	29.37700081	0	0	-0.2832552791	1.797200918	-17.91210365	1.0
59	29.37700081	0	0	-0.2826144993	1.79521966	-17.89169312	1.0
60	29.37700081	0	0	-0.2822920382	1.794203997	-17.88129997	1.0
61	29.37700081	0	0	-0.282163918	1.793809175	-17.8771553	1.0
[LeftHandRing4]
58	26.47500038	0	0	0	0	0	1.0
59	26.47500038	0	0	0	0	0	1.0
60	26.47500038	0	0	0	0	0	1.0
61	26.47500038	0	0	0	0	0	1.0
[LeftHandPinky1]
58	80.77799988	-4.887000084	-38.06099701	-1.772916436	4.465725422	-27.87586594	1.0
59	80.77799988	-4.887000084	-38.06099701	-1.756412029	4.961211681	-27.71100044	1.0
60	80.77799988	-4.887000084	-38.06099701	-1.731875777	5.447917938	-27.44898987	1.0
61	80.77799988	-4.887000084	-38.06099701	-1.71303165	5.668674469	-27.24161148	1.0
[LeftHandPinky2]
58	36	0	0	-0.269193083	1.753115654	-17.45815468	1.0
59	36	0	0	-0.2688753307	1.75209713	-17.44769287	1.0
60	36	0	0	-0.2687658966	1.751748204	-17.44409561	1.0
61	36	0	0	-0.2685402334	1.751023531	-17.43666077	1.0
[LeftHandPinky3]
58	21.14200211	0	0	-0.2423521727	1.665388703	-16.5581131	1.0
59	21.14200211	0	0	-0.2420454621	1.664368749	-16.54764366	1.0
60	21.14200211	0	0	-0.241942659	1.664019108	-16.54406166	1.0
61	21.14200211	0	0	-0.2417220771	1.663288355	-16.536623	1.0
[LeftHandPinky4]
58	19.75699997	0	0	0	0	0	1.0
59	19.75699997	0	0	0	0	0	1.0
60	19.75699997	0	0	0	0	0	1.0
61	19.75699997	0	0	0	0	0	1.0
[RightShoulder]
58	-45.70000076	109.4620056	-26.28000069	5.659496784	16.07041931	16.77115059	1.0
59	-45.70000076	109.4620056	-26.28000069	5.67305851	15.94795132	17.01831818	1.0
60	-45.70000076	109.4620056	-26.28000069	5.658523083	15.8520689	17.10960388	1.0
61	-45.70000076	109.4620056	-26.28000069	5.613788605	15.73005104	17.04166603	1.0
[RightArm]
58	-105.9280014	-5.248000145	-22.32099915	48.27331543	16.33421898	56.10209656	1.0
59	-105.9280014	-5.248000145	-22.32099915	45.8065033	15.00088692	57.37531662	1.0
60	-105.9280014	-5.248000145	-22.32099915	42.99505615	13.58887672	58.51325607	1.0
61	-105.9280014	-5.248000145	-22.32099915	40.06437302	12.08342934	59.42001343	1.0
[RightForeArm]
58	-278.414978	0	0	-1.128376425e-05	41.18151474	-5.858658483e-07	1.0
59	-278.414978	0	0	-1.618912211e-05	34.16452789	-8.531941603e-06	1.0
60	-278.414978	0	0	-4.932820957e-06	27.38474274	-5.108659479e-06	1.0
61	-278.414978	0	0	1.957423592e-06	21.34740448	7.360341669e-08	1.0
[RightHand]
58	-283.2879944	0	0.0009999999311	-9.698779106	22.86117744	16.2769413	1.0
59	-283.2879944	0	0.0009999999311	-10.38650036	20.35630989	15.03244686	1.0
60	-283.2879944	0	0.0009999999311	-11.78589153	17.54200172	12.75404835	1.0
61	-283.2879944	0	0.0009999999311	-13.78411579	14.59906101	10.31805992	1.0
[RightHandPinky1]
58	-80.76699829	-4.885000229	-38.06000137	-4.724759102	-6.472839832	56.49866867	1.0
59	-80.76699829	-4.885000229	-38.06000137	-4.483166218	-6.119213104	55.68985367	1.0
60	-80.76699829	-4.885000229	-38.06000137	-4.116913319	-5.753059864	53.49539185	1.0
61	-80.76699829	-4.885000229	-38.06000137	-3.691708565	-5.412948608	50.23329163	1.0
[RightHandPinky2]
58	-36	0	0.0009999999311	-1.53879118	-3.449453592	48.10523605	1.0
59	-36	0	0.0009999999311	-1.477518678	-3.393075228	47.07486725	1.0
60	-36	0	0.0009999999311	-1.335749149	-3.254855394	44.62362289	1.0
61	-36	0	0.0009999999311	-1.139040828	-3.043483496	41.0495491	1.0
[RightHandPinky3]
58	-21.14200211	0	0	-1.486303926	-3.40172863	47.2074585	1.0
59	-21.14200211	0	0	-1.425855756	-3.344327688	46.17602539	1.0
60	-21.14200211	0	0	-1.286144733	-3.20383215	43.72327042	1.0
61	-21.14200211	0	0	-1.092624664	-2.989377499	40.14775848	1.0
[RightHandPinky4]
58	-19.75699997	0	0	0	0	0	1.0
59	-19.75699997	0	0	0	0	0	1.0
60	-19.75699997	0	0	0	0	0	1.0
61	-19.75699997	0	0	0	0	0	1.0
[RightHandRing1]
58	-91.03599548	-0.4390000105	-18.65100098	-3.383658648	-4.36701107	50.17547226	1.0
59	-91.03599548	-0.4390000105	-18.65100098	-3.327569962	-4.236743927	49.53912354	1.0
60	-91.03599548	-0.4390000105	-18.65100098	-3.146273851	-4.057341576	47.4646225	1.0
61	-91.03599548	-0.4390000105	-18.65100098	-2.863223076	-3.872632027	44.18066025	1.0
[RightHandRing2]
58	-31.54000092	0	0	-1.778442025	-3.650074244	51.95520782	1.0
59	-31.54000092	0	0	-1.701973796	-3.588467121	50.73978806	1.0
60	-31.54000092	0	0	-1.542506695	-3.451574087	48.1374588	1.0
61	-31.54000092	0	0	-1.327843547	-3.24740839	44.46966934	1.0
[RightHandRing3]
58	-29.37700081	0	0	-1.587317824	-3.492370605	48.88756943	1.0
59	-29.37700081	0	0	-1.514220595	-3.426724434	47.67180634	1.0
60	-29.37700081	0	0	-1.362357497	-3.281510115	45.07016373	1.0
61	-29.37700081	0	0	-1.158998609	-3.066217899	41.40410995	1.0
[RightHandRing4]
58	-26.47500038	0	0	0	0	0	1.0
59	-26.47500038	0	0	0	0	0	1.0
60	-26.47500038	0	0	0	0	0	1.0
61	-26.47500038	0	0	0	0	0	1.0
[RightHandMiddle1]
58	-95.32500458	0	0	-2.846407175	-3.76804328	43.98596573	1.0
59	-95.32500458	0	0	-2.784259081	-3.866946936	43.25341797	1.0
60	-95.32500458	0	0	-2.61298871	-3.804481983	41.21915436	1.0
61	-95.32500458	0	0	-2.359443903	-3.576844215	38.15480804	1.0
[RightHandMiddle2]
58	-36.98199844	0	0	-1.567057967	-3.474621296	48.55393982	1.0
59	-36.98199844	0	0	-1.494014382	-3.408270836	47.33278656	1.0
60	-36.98199844	0	0	-1.343017459	-3.26213479	44.73130035	1.0
61	-36.98199844	0	0	-1.139676571	-3.044206381	41.04168701	1.0
[RightHandMiddle3]
58	-29.50900078	0	0	-1.627808213	-3.529249668	49.54878616	1.0
59	-29.50900078	0	0	-1.553694963	-3.464251518	48.32883835	1.0
60	-29.50900078	0	0	-1.400257707	-3.320839167	45.72855759	1.0
61	-29.50900078	0	0	-1.193237424	-3.106592894	42.0402832	1.0
[RightHandMiddle4]
58	-28.3390007	0	0.0009999999311	0	0	0	1.0
59	-28.3390007	0	0.0009999999311	0	0	0	1.0
60	-28.3390007	0	0.0009999999311	0	0	0	1.0
61	-28.3390007	0	0.0009999999311	0	0	0	1.0
[RightHandIndex1]
58	-91.08300018	-5.167999744	22.60099792	0.3457076252	-1.119939208	35.07316208	1.0
59	-91.08300018	-5.167999744	22.60099792	0.2489024848	-1.07677412	35.2950592	1.0
60	-91.08300018	-5.167999744	22.60099792	0.1837521642	-0.83901757	33.70476151	1.0
61	-91.08300018	-5.167999744	22.60099792	0.1548695117	-0.4342972934	30.52213097	1.0
[RightHandIndex2]
58	-36.76399994	0	0	-1.555312037	-3.464270592	48.36023712	1.0
59	-36.76399994	0	0	-1.485681176	-3.400548458	47.19222641	1.0
60	-36.76399994	0	0	-1.334233522	-3.253216982	44.57625198	1.0
61	-36.76399994	0	0	-1.131217241	-3.03448081	40.88219833	1.0
[RightHandIndex3]
58	-28.83100128	0	0	-1.032027483	-2.916951656	38.97950363	1.0
59	-28.83100128	0	0	-0.9738103151	-2.842822552	37.81396103	1.0
60	-28.83100128	0	0	-0.8484680653	-2.672766924	35.19998169	1.0
61	-28.83100128	0	0	-0.6839222312	-2.423921108	31.50949287	1.0
[RightHandIndex4]
58	-23.92700005	0	0	0	0	0	1.0
59	-23.92700005	0	0	0	0	0	1.0
60	-23.92700005	0	0	0	0	0	1.0
61	-23.92700005	0	0	0	0	0	1.0
[RightHandThumb1]
58	-24.64799881	-15.72700024	26.82600021	-1.658431768	-0.2892525792	-4.221363068	1.0
59	-24.64799881	-15.72700024	26.82600021	-1.658430457	-0.2892380357	-4.221362114	1.0
60	-24.64799881	-15.72700024	26.82600021	-1.658459663	-0.2891173065	-4.221323013	1.0
61	-24.64799881	-15.72700024	26.82600021	-1.658482909	-0.2891057432	-4.221296787	1.0
[RightHandThumb2]
58	-32.29800034	-18.64699936	18.64699936	20.45790291	-19.25774384	-24.67380524	1.0
59	-32.29800034	-18.64699936	18.64699936	21.19842339	-21.27239418	-24.35404968	1.0
60	-32.29800034	-18.64699936	18.64699936	21.87883568	-23.01747131	-24.21212196	1.0
61	-32.29800034	-18.64699936	18.64699936	22.34775352	-24.14525986	-24.21501732	1.0
[RightHandThumb3]
58	-26.52600098	-15.31399918	15.31399918	-14.4896698	-6.781683445	-11.71197701	1.0
59	-26.52600098	-15.31399918	15.31399918	-14.4824152	-6.759298325	-11.50097752	1.0
60	-26.52600098	-15.31399918	15.31399918	-14.48507595	-6.734699726	-11.40557861	1.0
61	-26.52600098	-15.31399918	15.31399918	-14.49041271	-6.717104435	-11.38149929	1.0
[RightHandThumb4]
58	-19.54599953	-11.28499985	11.28499985	0	0	0	1.0
59	-19.54599953	-11.28499985	11.28499985	0	0	0	1.0
60	-19.54599953	-11.28499985	11.28499985	0	0	0	1.0
61	-19.54599953	-11.28499985	11.28499985	0	0	0	1.0
[LeftUpLeg]
58	82.07800293	-67.51699829	-15.99599934	-16.63689232	15.46197891	7.210939407	1.0
59	82.07800293	-67.51699829	-15.99599934	-14.52580452	15.70380402	7.312419891	1.0
60	82.07800293	-67.51699829	-15.99599934	-12.53143215	15.9699173	7.376685619	1.0
61	82.07800293	-67.51699829	-15.99599934	-10.92460728	16.08697701	7.369434357	1.0
[LeftLeg]
58	0	-443.7049866	2.845999956	20.12172699	-1.549366474	3.331259012	1.0
59	0	-443.7049866	2.845999956	18.06793594	-0.7909216285	3.699478865	1.0
60	0	-443.7049866	2.845999956	15.88591194	-0.06213717908	3.923973322	1.0
61	0	-443.7049866	2.845999956	14.10888004	0.6511118412	4.135444641	1.0
[LeftFoot]
58	0	-444.2789917	-29.8219986	-0.9849504828	0.659183383	-5.650346756	1.0
59	0	-444.2789917	-29.8219986	-0.3113666773	0.6508919001	-5.89631176	1.0
60	0	-444.2789917	-29.8219986	0.4376057982	0.6627793908	-6.080003738	1.0
61	0	-444.2789917	-29.8219986	1.029612064	0.6806848049	-6.26852417	1.0
[LeftToeBase]
58	0	-87.28699493	107.1060028	-4.928524494	3.590568667e-06	1.848055149e-07	1.0
59	0	-87.28699493	107.1060028	-4.928525448	2.757130233e-06	8.995293683e-07	1.0
60	0	-87.28699493	107.1060028	-4.928524017	1.58003013e-06	-5.392293474e-07	1.0
61	0	-87.28699493	107.1060028	-4.92852354	6.609661341e-06	-2.749178748e-06	1.0
[RightUpLeg]
58	-82.07800293	-67.51699829	-15.99599934	-7.805829525	-9.492290497	4.784667969	1.0
59	-82.07800293	-67.51699829	-15.99599934	-5.836727619	-9.604001045	4.548199654	1.0
60	-82.07800293	-67.51699829	-15.99599934	-3.947039127	-9.732322693	4.271519184	1.0
61	-82.07800293	-67.51699829	-15.99599934	-2.456642389	-9.906340599	3.901577711	1.0
[RightLeg]
58	0	-443.7049866	2.861999989	17.13606644	-8.626825333	-5.950814724	1.0
59	0	-443.7049866	2.861999989	14.64848232	-8.828186035	-5.828361511	1.0
60	0	-443.7049866	2.861999989	11.99746895	-9.072421074	-5.585450172	1.0
61	0	-443.7049866	2.861999989	9.922059059	-9.290716171	-5.215732098	1.0
[RightFoot]
58	0	-444.2770081	-29.83799934	-6.887318134	-5.284184933	4.492631912	1.0
59	0	-444.2770081	-29.83799934	-5.784734726	-4.244401932	4.267941475	1.0
60	0	-444.2770081	-29.83799934	-4.62443018	-3.219524145	4.020294189	1.0
61	0	-444.2770081	-29.83799934	-3.767535925	-2.268350601	3.772398233	1.0
[RightToeBase]
58	0	-87.28699493	107.1060028	-7.282873631	-1.23046857e-06	-6.739117566e-07	1.0
59	0	-87.28699493	107.1060028	-7.282873631	-5.645013516e-06	-1.558134954e-07	1.0
60	0	-87.28699493	107.1060028	-7.282873154	-8.031799439e-07	-2.210445826e-09	1.0
61	0	-87.28699493	107.1060028	-7.282875061	-7.729986464e-06	6.672598829e-07	1.0
[EndOfFile]
